<?xml version="1.0" encoding="UTF-8" standalone="no"?><!DOCTYPE svg PUBLIC "-//W3C//DTD SVG 1.1//EN" "http://www.w3.org/Graphics/SVG/1.1/DTD/svg11.dtd"><svg width="100%" height="100%" viewBox="0 0 250 250" version="1.1" xmlns="http://www.w3.org/2000/svg" xmlns:xlink="http://www.w3.org/1999/xlink" xml:space="preserve" xmlns:serif="http://www.serif.com/" style="fill-rule:evenodd;clip-rule:evenodd;stroke-linecap:round;stroke-linejoin:round;"><rect id="favicon" x="0" y="0" width="250" height="250" style="fill:none;"/><path d="M224.259,6.184c10.528,0.001 19.064,8.536 19.064,19.065l-0,199.099c-0,10.529 -8.536,19.064 -19.064,19.064l-199.1,0c-10.529,0 -19.064,-8.535 -19.064,-19.064l0,-199.099c0,-10.529 8.535,-19.064 19.064,-19.065l199.1,0Z" style="fill:#05a53f;"/><rect x="31.681" y="31.785" width="185.427" height="185.427" style="fill:none;fill-rule:nonzero;"/><path d="M54.859,147.677c0,16.953 13.951,30.904 30.905,30.904c16.954,0 30.904,-13.951 30.904,-30.904c0,-16.954 -13.95,-30.905 -30.904,-30.905c-16.954,0 -30.905,13.951 -30.905,30.905" style="fill:none;fill-rule:nonzero;stroke:#fff;stroke-width:15.45px;"/><path d="M85.764,147.677l-0,0.077" style="fill:none;fill-rule:nonzero;stroke:#fff;stroke-width:15.45px;"/><path d="M163.025,163.129c0,8.477 6.975,15.452 15.452,15.452c8.477,0 15.453,-6.975 15.453,-15.452c-0,-8.477 -6.976,-15.452 -15.453,-15.452c-8.477,-0 -15.452,6.975 -15.452,15.452" style="fill:none;fill-rule:nonzero;stroke:#fff;stroke-width:15.45px;"/><path d="M112.805,163.129l50.22,0" style="fill:none;fill-rule:nonzero;stroke:#fff;stroke-width:15.45px;"/><path d="M186.203,149.222l0,-32.45c0,-4.238 -3.487,-7.726 -7.726,-7.726l-46.356,0l-15.453,-38.63l-46.356,-0l-0,50.219" style="fill:none;fill-rule:nonzero;stroke:#fff;stroke-width:15.45px;"/><path d="M170.751,70.416l-7.726,-0c-4.238,-0 -7.726,3.487 -7.726,7.726l-0,30.904" style="fill:none;fill-rule:nonzero;stroke:#fff;stroke-width:15.45px;"/></svg>